<?xml version="1.0" encoding="utf-8"?>
<!-- Generator: Adobe Illustrator 20.1.0, SVG Export Plug-In . SVG Version: 6.00 Build 0)  -->
<svg version="1.1" id="_x38_00x800px" xmlns="http://www.w3.org/2000/svg" xmlns:xlink="http://www.w3.org/1999/xlink" x="0px"
	 y="0px" viewBox="0 0 800 800" style="enable-background:new 0 0 800 800;" xml:space="preserve">
<style type="text/css">
	.st0{fill:#620500;}
	.st1{fill:#610700;stroke:#610700;stroke-width:13.392;stroke-miterlimit:10;}
	.st2{fill:#FEBE10;}
	.st3{fill:#62CBE8;}
	.st4{fill:#008C7D;}
	.st5{fill:#F4D7B2;}
	.st6{fill:#5DB0B1;}
	.st7{display:none;}
	.st8{display:inline;fill:#006055;}
	.st9{display:inline;fill:#630400;}
	.st10{fill:#002B4E;}
	.st11{fill:#D9306B;}
	.st12{fill:#951848;}
	.st13{fill:#F0A672;}
	.st14{fill:#E0413E;}
	.st15{fill:#610700;}
	.st16{fill:#482447;}
	.st17{fill:#FFFFFF;}
	.st18{fill:#F69445;}
	.st19{fill:#630400;}
</style>
<g>
	<path class="st0" d="M414.7,394.2c3.8,4,18.7,27,27.3,49.2c0.4,1.1-3.1,1.8-3.7,0.8c-6.6-12.8-19.6-41.3-23.4-38.1
		c-1.7,2.1-1.8-6.9-1.8-11.2C413.1,394,414.1,393.6,414.7,394.2z"/>
	<g>
		<path class="st1" d="M278.7,403.1c0.2,0,0.4,0,0.6,0c1,0.2,1.1,1.2,0.5,2.9c-0.1,0.2-0.2,0.4-0.2,0.7c-1.2,3.6-2.2,8.9-2.9,15.8
			c-1.2,10.9-1,19.2,0.6,25c2.1-4,4.1-8.8,5.9-14.3c2.8-8.6,4.3-16.2,4.7-22.9l0.1-0.1c0.2-2.8,0.3-4.9,0.6-6.5
			c0.1-0.3,0.1-0.6,0.2-0.9c0.3-0.9,1.1-1.4,2.2-1.5l7-1c1,0,1.5,0.7,1.3,2.2c-1.5,7.7-2,15.1-1.5,22.2c0.7,10.1,1.7,17,3.1,20.7
			c0-0.1,0.1-0.1,0.1-0.2c3.3-5.7,5.6-13.7,7.1-24.1c1.1-8,1.4-14.8,0.9-20.5c0-0.5-0.1-0.8,0-1c0-0.6,0.5-0.9,1.3-1.1l6.9-1
			c0.6-0.1,1.1-0.1,1.4,0c0.5,0.1,0.8,0.7,0.9,1.6c0.4,3.1,0.5,7.2,0,12.4c-0.7,9.3-2.5,17.9-5.2,26c-3.3,9.9-7.3,16.3-12.1,19.2
			l-5.4,0.8c-0.2,0-0.3,0-0.5,0c-0.7,0-1.2-0.4-1.7-1.3c-2-3.8-3.6-8.9-4.8-15.5c-0.3,0.8-0.6,1.5-0.9,2.3c-2.9,7-6,12.6-9.3,16.9
			l-5.8,0.8c-1.1,0.1-1.9-0.3-2.5-1.2c-0.5-1-1-2-1.4-3.2c-2.6-6.8-4-15.3-4.1-25.3c-0.1-9.8,0.9-18.4,3.2-25.6
			c0.3-0.7,0.9-1.2,1.9-1.4L278.7,403.1z M303.1,448.3c0.2,0.1,0.4,0.1,0.5,0.1L303.1,448.3z"/>
		<path class="st1" d="M329.9,397.5c0.1-1.2,0.8-1.8,2.1-2l6.6-0.9c0.3,0,0.6,0,0.9,0.1c0.7,0.3,1.1,1,1,2.1l-5.8,53.8
			c-0.1,1.2-0.8,1.8-2.1,2l-6.5,0.9c-0.3,0-0.6,0-0.9-0.1c-0.7-0.3-1.1-1-1-2.1L329.9,397.5z"/>
		<path class="st1" d="M351.4,394.4c0.1-1.2,0.8-1.8,2.1-2l6.5-0.9c0.3,0,0.6,0,0.9,0.1c0.7,0.3,1.1,1,1,2.1l-5,46l14.8-2.1
			c1.5-0.2,2.2,0.5,2.1,2.2l-0.3,4.7c0,0.3-0.1,0.7-0.3,1c-0.5,0.9-1.2,1.4-2,1.6l-23.7,3.4c-0.3,0-0.6,0-0.9-0.1
			c-0.7-0.3-1.1-1-1-2.1L351.4,394.4z"/>
		<path class="st1" d="M381.9,398.4c-0.6,0.2-1.1,0.4-1.7,0.6c-1.3,0.5-2,0.7-2.1,0.8c-0.3,0-0.5,0-0.8-0.1c-0.8-0.2-1.2-0.9-1.2-2
			l-0.1-6.5c0-0.8,0.6-1.4,1.5-1.9c0.1,0,0.1,0,0.2-0.1c3.9-1.3,8.2-2.2,12.8-2.9c3.4-0.5,6.4-0.3,9,0.5c5.4,1.8,8.6,6.4,9.7,13.7
			c0.7,4.6,0.6,10.2-0.1,16.7c-0.5,4.1-1.3,7.9-2.4,11.2c-3.1,9.4-8.5,14.7-16,15.8c-0.2,0-0.3,0-0.5,0.1c-5,0.7-8.5,1-10.5,1
			c-0.3,0-0.7-0.1-0.9-0.1c-1.3-0.3-1.8-1.5-1.6-3.4L381.9,398.4z M392.7,396.6l-4.2,37.7c0.5,0,1.4-0.1,2.7-0.3
			c3.6-0.5,6-6.5,7.2-17.9c0.5-5.1,0.5-9.5-0.2-13.3c-0.7-3.9-1.7-5.9-3.2-6.1C394.5,396.6,393.7,396.6,392.7,396.6z"/>
	</g>
	<g>
		<g>
			<g>
				<g>
					<g>
						<g>
							<g>
								<g>
									<path class="st2" d="M191.5,354.2c2.8,2.6,5.6,5.2,8.3,7.8c3.4-0.6,6.8-1.1,10.2-1.7c-1.3,3.2-2.6,6.3-3.9,9.5
										c2,3.2,3.9,6.5,5.9,9.7c-3.4-0.7-6.8-1.4-10.3-2c-2.1,2.6-4.1,5.1-6.1,7.7c-1-3.6-2-7.1-3-10.7c-3.3-1.6-6.7-3.1-10.1-4.6
										c2.9-1.7,5.8-3.3,8.8-5C191.3,361.4,191.4,357.8,191.5,354.2z"/>
									<path class="st3" d="M217.5,296.9c2.5,2.8,4.9,5.7,7.4,8.5c3.4-0.3,6.8-0.5,10.3-0.7c-1.7,3-3.3,6.1-4.9,9.1
										c1.6,3.4,3.2,6.8,4.7,10.2c-3.3-1-6.6-2-10-3c-2.3,2.4-4.6,4.7-6.8,7.1c-0.6-3.6-1.2-7.3-1.8-10.9
										c-3.1-1.9-6.3-3.7-9.5-5.6c3.1-1.4,6.1-2.8,9.2-4.1C216.5,304,217,300.4,217.5,296.9z"/>
									<path class="st2" d="M274.5,259.4c2.1,3,4.3,6.1,6.3,9.1c3.4,0,6.8,0.1,10.3,0.2c-2,2.9-4,5.7-5.9,8.6
										c1.2,3.5,2.4,7,3.5,10.6c-3.2-1.3-6.3-2.6-9.5-3.8c-2.6,2.1-5.1,4.3-7.6,6.5c-0.2-3.7-0.4-7.4-0.6-11
										c-2.9-2.1-5.8-4.3-8.7-6.4c3.2-1.1,6.4-2.2,9.6-3.3C272.8,266.4,273.6,262.9,274.5,259.4z"/>
									<path class="st3" d="M350.2,217.5c1.8,3.2,3.5,6.4,5.3,9.7c3.4,0.3,6.8,0.7,10.2,1.1c-2.3,2.7-4.6,5.4-6.8,8.1
										c0.8,3.6,1.6,7.2,2.3,10.8c-3-1.6-6-3.1-9-4.7c-2.8,1.9-5.5,3.8-8.3,5.8c0.2-3.7,0.4-7.4,0.7-11c-2.6-2.4-5.3-4.8-8-7.1
										c3.3-0.8,6.6-1.6,9.9-2.4C347.7,224.3,348.9,220.9,350.2,217.5z"/>
									<path class="st2" d="M418.5,228.6c1.4,3.4,2.8,6.7,4.1,10.1c3.3,0.6,6.7,1.3,10,2c-2.6,2.5-5.2,4.9-7.7,7.4
										c0.4,3.7,0.7,7.3,1.1,11c-2.8-1.8-5.6-3.7-8.5-5.5c-3,1.6-5.9,3.3-8.9,5c0.6-3.6,1.3-7.3,1.9-10.9
										c-2.3-2.6-4.7-5.2-7.1-7.8c3.4-0.5,6.7-1,10.1-1.5C415.2,235.1,416.9,231.9,418.5,228.6z"/>
									<path class="st3" d="M482,260.8c1,3.5,2,6.9,3,10.4c3.3,0.9,6.5,1.9,9.7,2.9c-2.9,2.2-5.7,4.4-8.5,6.7
										c0,3.7-0.1,7.4-0.2,11c-2.6-2.1-5.2-4.1-7.8-6.2c-3.2,1.4-6.3,2.8-9.4,4.2c1-3.6,2.1-7.1,3.1-10.7c-2-2.8-4.1-5.6-6.2-8.4
										c3.4-0.2,6.8-0.4,10.2-0.6C478,267,480,263.9,482,260.8z"/>
									<path class="st2" d="M528.1,321.9c0.6,3.5,1.2,7.1,1.8,10.6c3.1,1.2,6.3,2.5,9.4,3.8c-3.1,1.9-6.2,3.9-9.2,5.9
										c-0.5,3.7-0.9,7.3-1.4,11c-2.3-2.3-4.7-4.6-7.1-6.9c-3.3,1.1-6.6,2.2-9.8,3.3c1.4-3.5,2.9-6.9,4.3-10.4
										c-1.7-3-3.4-6-5.2-8.9c3.4,0.1,6.8,0.2,10.3,0.3C523.4,327.7,525.7,324.8,528.1,321.9z"/>
									<path class="st3" d="M535.4,387.1c0.2,3.6,0.4,7.2,0.6,10.8c3,1.5,6,3.1,9,4.6c-3.3,1.6-6.6,3.3-9.9,5
										c-0.9,3.6-1.8,7.2-2.7,10.8c-2.1-2.5-4.2-5-6.3-7.5c-3.4,0.8-6.8,1.6-10.2,2.4c1.8-3.3,3.7-6.6,5.5-9.9
										c-1.4-3.1-2.8-6.3-4.2-9.4c3.4,0.4,6.8,0.8,10.2,1.3C530,392.5,532.7,389.8,535.4,387.1z"/>
								</g>
							</g>
							<g>
								<path class="st4" d="M486.3,404.6c0,0-35.4,1.2-65.8-29.4l-5.6,9c0,0,31,35.5,79.9,39.1l1.7-7.1L486.3,404.6z"/>
								<g>
									<path class="st5" d="M621.5,384.3l5.8-3.1c0,0,19-5.1,16.6-9c-2.4-4-14.7,0-14.7,0s12.3-8.7,8.8-10.9
										c-3.5-2.2-12.3,7.2-12.3,7.2s3.6-11.9,0-12.5c-3.6-0.6-8.5,13.8-8.5,13.8s-4-2.9-6.4-1.3c-2.4,1.6,5.2,6.7,5.2,6.7
										S614.9,380.4,621.5,384.3z"/>
									<path class="st4" d="M550.1,404.6c0,0,35.4,1.2,65.8-29.4l5.5,9c0,0-31,35.5-79.9,39.1l-1.7-7.1L550.1,404.6z"/>
									<path class="st4" d="M547.9,405.6c0,0,32.4,50.2,27.6,67.7c-4.8,17.5-31.5,36.6-57,44.7c-62.8,19.7-81.8-52.4-34.2-111.2
										L547.9,405.6z"/>
									<g>
										<path class="st6" d="M491.5,423l-12.3-9.7c-25.3,34.5-16.4,52.4,0,60.7C474.6,451.4,491.5,423,491.5,423z"/>
									</g>
									<g class="st7">
										<path class="st8" d="M508,480.3c0.2,0,0.4,0,0.6,0c26.8,0,59.6-6.6,64.4-24.1c3.4-12.2-10.2-32-18.7-42.9
											c-9.7,2-36.9,18-36.9,18S541.3,457.6,508,480.3z"/>
										<path class="st9" d="M389.6,436l39.4,19.1l34.5-11.3l7.5-1.1l7.6,22.8c0,0,21.1,9.6,25.5,12.3c4.5,2.7,16.6,5.3,16.6,5.3
											l26.2-17.8c0,0,53.2-6.5,58.2-5.7c4.9,0.8,23,2.1,27.8,3.3c4.8,1.3,17.4,11.4,22.6,17.5c5.2,6.2,8.9,19.5,8,27.2
											c-1,7.6-14.4,13.9-15.4,19c-1,5.1-3.8,20.8-3.8,20.8l-13.9,15.3L558,581.2l-39.5-4.4l-30.6-25.5l-40,8.1l-17,0.1
											l-39.5,3.2c0,0-32.5,1-33.6-105.4c0,0-9.9-43.6,10-45.3C387.7,410.2,389.6,436,389.6,436z"/>
									</g>
									<path class="st5" d="M414.9,384.3l-5.8-3.1c0,0-19-5.1-16.6-9c2.4-4,14.7,0,14.7,0s-12.3-8.7-8.8-10.9
										c3.5-2.2,12.3,7.2,12.3,7.2s-3.6-11.9,0-12.5c3.6-0.6,8.5,13.8,8.5,13.8s4-2.9,6.4-1.3c2.4,1.6-5.2,6.7-5.2,6.7
										S421.5,380.4,414.9,384.3z"/>
									<g>
										<path class="st10" d="M480.3,416.6c0,0-14.2,8-2.3,15.1c11.8,7.1,16.1-6.2,16.1-6.2s-1,15.2,12.5,17.1
											c13.5,1.9,10.7-14.8,10.7-14.8s-1,14.5,11.2,15c12.2,0.5,12.9-21.4,12.9-21.4s-6.4,20,6.4,18c12.9-1.9,7.4-22.9,7.4-22.9
											s6.1,15.1,14.5,6.1c8.4-9-13.8-18.7-13.8-18.7H478c0,0-20.5,6.4-14,14.2C470.5,425.9,480.3,416.6,480.3,416.6z"/>
										<path class="st11" d="M477.4,399.1c0,0-23,18.7-39.9,12.3c-16.8-6.3,4.2-16.5,4.2-16.5s-22.4,5.5-21.8-6.6
											c0.5-12.1,14.7-13.9,14.7-13.9s-27.2-10.6-21-24c6.2-13.4,25.5-4.2,25.5-4.2s-26.9-24-6.5-36.4
											c20.4-12.4,31.7,6.9,31.7,6.9s1.7-32.3,16.9-34.4c15.2-2.1,13,22.4,13,22.4s9.8-27.6,26.7-28.3c16.9-0.7,7.3,20,7.3,20
											s17.4-20.3,36.3-20.1c18.9,0.2,9.8,24.7,9.8,24.7s19.3-5.4,33.2,7.3c14,12.7-19.9,27.3-19.9,27.3s21.8-6.2,29.6,7.8
											c7.9,13.9-23.7,24.7-23.7,24.7s12,5.8,14,18.7c2,12.9-17.5,8.3-17.5,8.3s6.5,8.8,2.2,18.5c-4.4,9.8-30.7-9-30.7-9
											L477.4,399.1z"/>
										<path class="st12" d="M476.4,395.3c0,0-26.1,7.2-27.3,0.3c-1.2-6.9,12.3-14.1,14.5-14c2.2,0.1-27.5-7.8-23-21.4
											c4.5-13.6,24.9,1.8,24.9,1.8s-27.4-18.4-16.4-27.2c11-8.8,31.1,18.4,31.1,18.4s-14.5-35.2,0-33.3
											c14.5,1.9,19.9,22.5,19.9,22.5s-9.2-28.1,7-27.6c16.2,0.5,9.5,24.8,9.5,24.8s15.7-37,31.3-30.4
											c15.6,6.6-1.1,33.2-1.1,33.2s15.9-10.8,32,0c16.1,10.8-14,17.8-14,17.8s28,8.9,26,19c-2,10.1-26.8-9-26.8-9
											s23.1,25.9,16.7,31.8c-6.4,5.9-24.2-12-24.2-12L476.4,395.3z"/>
										<path class="st5" d="M560,385.1c0,23.6,10.7,42.7-42.7,42.7c-50.7,0-42.7-19.1-42.7-42.7c0-23.6,19.1-42.7,42.7-42.7
											C540.9,342.3,560,361.5,560,385.1z"/>
										<g>
											<path class="st13" d="M524.6,427.7c45.1-1.7,35.4-20.2,35.4-42.6c0-7.9-2.2-15.3-5.9-21.6l-20.8,0.8
												C533.4,364.2,545,413.3,524.6,427.7z"/>
										</g>
										<g>
											<g>
												<ellipse class="st14" cx="503.4" cy="381.6" rx="5.9" ry="2.5"/>
												<ellipse class="st14" cx="531.6" cy="381.6" rx="5.9" ry="2.5"/>
											</g>
											<path class="st15" d="M555.7,406.4c2.1,3.5,0,8.7-4.9,10.8c-21.2,9.1-45.3,9.1-66.6,0c-5-2.1-7.1-7.3-4.9-10.8l0,0
												c2.1-3.6,6.9-4.6,10.8-3c17.5,7.5,37.3,7.5,54.8,0C548.8,401.8,553.6,402.9,555.7,406.4L555.7,406.4z"/>
											<path class="st16" d="M509.1,391.3c-1.3-6.1-9.9-6.1-11.2,0c-0.5-0.1-1-0.2-1.4-0.3c1.6-7.6,12.5-7.6,14.1,0
												C510,391.1,509.5,391.2,509.1,391.3z"/>
											<path class="st16" d="M537.3,391.3c-1.3-6.1-9.9-6.1-11.2,0c-0.5-0.1-1-0.2-1.4-0.3c1.6-7.6,12.5-7.6,14.1,0
												C538.2,391.1,537.7,391.2,537.3,391.3z"/>
											<g>
												<g>
													<path class="st17" d="M512.2,416.2c2.3,0,4.2-1.2,5.3-3c1,1.8,3,3,5.3,3c3.4,0,6.1-2.7,6.1-5.9c0-0.7-0.1-1.4-0.4-2.1
														c-7.3,1.2-14.7,1.2-21.9,0c-0.3,0.6-0.4,1.3-0.4,2.1C506.1,413.6,508.9,416.2,512.2,416.2z"/>
												</g>
											</g>
											<ellipse class="st14" cx="517.3" cy="397.5" rx="12.7" ry="7.5"/>
											<ellipse class="st18" cx="517.4" cy="393.4" rx="5.7" ry="2.1"/>
										</g>
									</g>
								</g>
								<path class="st12" d="M482.8,353.9c0,0-17.3,11.7-11.1,16.1c6.3,4.4,9.9-2.1,9.9-2.1s-1.7,5.7,4.8,5.7
									c6.5,0,4.4-9.9,4.4-9.9s0.6,10,9.6,10.1c9,0.1,0-16,0-16s7.9,17.5,16.7,16c8.8-1.5,5-14.4,5-14.4s1.8,12.5,9.5,12.9
									c7.6,0.4,6.4-11.3,6.4-11.3s-0.5,13.6,6.8,12.8c7.3-0.7,3.3-14.4,3.3-14.4s-2.8,14.8,8.2,14.5c11.1-0.4,7.2-16.4,7.2-16.4
									s-30.4-22.2-31.8-22.6c-1.4-0.4-31.3,0-31.3,0l-7.2,7.4"/>
								<g>
									<path class="st17" d="M489.2,408.2c5.7,0.9,6.2-2.7,6.2-2.7s0.7,6.8,4.9,6.7c4.2-0.1,6.2-4,6.2-4
										c-5.6-0.9-11.1-2.5-16.4-4.7c-2-0.8-4.1-1-6.1-0.5C484,403,483.4,407.3,489.2,408.2z"/>
									<path class="st17" d="M538.7,410.8c5.1-1.1,4-6.5,4-6.5s2.7,4.5,7.2,3.9c4.5-0.6,4-3.8,3.9-3.8c-2.4-1.8-5.9-2.2-9-0.9
										c-4.3,1.8-8.8,3.2-13.3,4.2l0,0C531.6,407.6,533.6,411.9,538.7,410.8z"/>
								</g>
							</g>
							<g>
								<g>
									<path class="st1" d="M252,446.9c0.7,4.9-0.3,9.2-3,12.9c-2.8,3.8-6.3,6-10.7,6.6c-4.1,0.6-7.9-0.5-11.2-3.3
										c-3.3-2.8-5.3-6.6-6-11.3c-0.7-4.6,0.2-10,2.7-16.3c-2.5-3.5-5.5-5-8.8-4.5c-7.2,1-9.8,8-8,21l4.4,30.7l9.8,9.7l-6.6,12.1
										l5.6,38.8c0.9,6.5,2,11,3.3,13.6c2.3,4.6,5.7,6.6,10.3,5.9c8.8-1.3,11.6-12.5,8.5-33.6l-1.4-9.9l19.7-2.8l1.9,12.9
										c1.8,12.3,1.8,22.1,0.2,29.5c-1.4,6.3-4.5,11.5-9.2,15.6c-4.7,4.2-10,6.7-16.1,7.6c-13.1,1.9-24-3.6-32.5-16.6
										c-10.1-15.2-17.1-34.1-20.8-56.6l-9.4-9.8l7.2-12.2c-0.7-17.7,0.9-32.8,4.8-45.5c5.3-17.7,14.4-27.5,27.6-29.4
										c6.2-0.9,13.2,1.8,20.9,8.1C245.1,428.5,250.7,437.4,252,446.9z"/>
									<path class="st1" d="M306,568.8l-4.7,0.7c-4.8,0.7-8.2,0-10.2-2.1c-1.4,2.6-4.5,4.3-9.3,5l-4.7,0.7l-1.8-12.4
										c3.7-0.6,5.8-1.2,6.1-1.8c0.4-0.6,0.3-2.4-0.1-5.4l-3.9-27l-5.1-6.2l3.1-7.4l-3.1-21.4c-0.4-3-0.9-4.8-1.5-5.3
										c-0.6-0.5-2.7-0.4-6.3,0.1l-1.8-12.4l4.7-0.7c4.9-0.7,8.4,0,10.4,2.1c1.3-2.6,4.4-4.3,9.2-4.9l4.7-0.7l1.8,12.4
										c-3.6,0.5-5.6,1.1-6,1.8c-0.4,0.7-0.4,2.5,0,5.4l3.1,21.4l5.1,6.2l-3.1,7.4l3.9,27c0.4,2.9,0.9,4.6,1.5,5.1
										c0.5,0.5,2.7,0.5,6.3,0.1L306,568.8z"/>
									<path class="st1" d="M368.2,563.2l-21,3l-5.4-37.3c-0.6-4.3-1.2-6.7-1.7-7.4c-0.5-0.5-1.6-0.7-3.5-0.5l-2.2-14.9
										c1.2-0.5,2-1.2,2.4-2.2c0.7-1.5,0.7-4.3,0.1-8.5l-1.1-7.8c-0.9-6-2.7-9-5.3-8.8l-2-13.6c0.3,0,0.5-0.1,0.8-0.1
										c6.5-0.9,11.6,1,15.5,5.8c3.3,4.1,5.5,9.6,6.5,16.6c1.3,8.7,0,16-3.8,21.9c5,2,8.1,6.5,9.1,13.6l3,20.7
										c0.5,3.5,1,5.5,1.5,6.2c0.5,0.7,1.5,0.9,2.9,0.7l2.2-0.3L368.2,563.2L368.2,563.2z M341.4,554.1c0.9,0,1.9-0.1,3.1-0.3
										l1.8,12.5l-3.1,0.4L341.4,554.1z M336.6,521c-0.4,0-0.7,0.1-1.1,0.1l-2.9,0.4l3.9,27c0.4,2.9,0.9,4.6,1.5,5.1
										c0.4,0.4,1.5,0.5,3.4,0.4l1.8,12.7l-1.7,0.2c-4.9,0.7-8.4-0.1-10.6-2.3c-1.5,2.7-4.7,4.5-9.6,5.2l-4.8,0.7l-1.8-12.5
										c3.8-0.6,5.8-1.3,6.3-1.9c0.4-0.6,0.4-2.4-0.1-5.4l-4-27.4l-5.2-6.2l3.2-7.5l-3.1-21.6c-0.4-3-1-4.7-1.6-5.3
										c-0.6-0.5-2.8-0.5-6.5,0l-1.8-12.5l4.8-0.7c5.2-0.8,8.8,0,10.8,2.2c2.2-3.4,5.8-5.6,10.9-6.4l2,13.6c-0.1,0-0.2,0-0.3,0
										c-1.5,0.2-2.5,0.8-2.8,1.6c-0.4,0.9-0.3,2.8,0.2,5.9l3,20.4l1.7-0.2c0.9-0.1,1.6-0.3,2.3-0.6L336.6,521z"/>
									<path class="st1" d="M405.1,477.3c0.5,3.2-0.1,6.1-1.7,8.6c-1.6,2.5-3.8,4-6.5,4.4c-2.6,0.4-4.9-0.4-6.9-2.4
										c-2.1-1.9-3.3-4.5-3.8-7.6c-0.4-2.9,0-6.1,1.1-9.7c-1-1.3-2.2-1.8-3.4-1.7c-3.2,0.5-4.4,4.1-3.4,10.9l2.6,17.9l5.8,6.2
										l-3.8,7.6l3.3,22.7c1.1,7.5,3.2,11.1,6.4,10.6c2-0.3,3.3-1.6,3.8-4.1c0.8-3,0.6-7.8-0.3-14.4l-1-7.2l12.8-1.9l1.3,9
										c1.1,7.4,1.2,13.4,0.3,18c-1.6,8.5-6.5,13.4-14.5,14.5c-8.4,1.2-15.6-3.6-21.4-14.6c-4.2-7.9-7.3-17.9-9.4-30l-5.6-6.3
										l4.1-7.8c-0.5-10.6,0.3-19.7,2.4-27.3c2.9-10.8,8.2-16.7,15.7-17.8c3.7-0.5,7.7,1.2,12.2,5.2
										C400.9,465.7,404.3,471.3,405.1,477.3z"/>
									<path class="st1" d="M464.8,458.4c-2.9,0.5-4.5,1.2-4.9,1.9c-0.4,0.8-0.4,2.5,0,5.1L463,487l5.4,6l-3.5,7.6l2.5,17.3
										c1.9,13,0.6,22-3.9,27c-3.2,3.5-7.5,5.6-13,6.4c-5.4,0.8-10.1,0-14.1-2.5c-4.4-2.7-7.5-7.1-9.2-13.2
										c-0.8-2.8-1.6-6.6-2.2-11.3l-2.5-17.6l-5.5-6.3l3.5-7.3l-3.1-21.6c-0.4-2.9-0.9-16.5-1.4-17.1c-0.6-0.5-2.6,11.4-6.2,11.8
										l-1.8-12.4l4.2-0.6c5.3-0.8,9-0.1,11.1,2c1.5-2.6,4.9-4.3,10.3-5.1l3.4-0.5l1.8,12.4c-2.6,0.5-4.2,1.1-4.8,1.8
										c-0.5,0.7-0.6,2.5-0.2,5.3l3.1,21.6l5.3,6l-3.4,7.6l3.4,23.4c1,6.6,3.6,9.6,7.8,9c4.3-0.6,6-4.2,5.1-10.8l-3.4-23.4
										l-5.4-6.3l3.4-7.3l-3.1-21.6c-0.4-2.7-1-4.4-1.7-5c-0.7-0.5-2.4-0.7-5.1-0.4l-1.8-12.4l2.5-0.4c4.7-0.7,8.2,0,10.4,2.1
										c1.5-2.6,4.7-4.3,9.4-5l2.6-0.4L464.8,458.4z"/>
									<path class="st1" d="M527.1,509.5c1.1,7.8-0.1,15.1-3.6,21.7c-3.8,6.9-9.2,10.9-16.3,11.9c-6,0.9-12-1.1-17.8-5.8
										c-7-5.7-10.8-10.9-11.5-15.7c-0.4-3.1,0.3-6,2.1-8.7c1.9-2.7,4.3-4.3,7.2-4.7c2.9-0.4,5.5,0.5,7.7,2.7
										c2.2,2.2,3.6,4.9,4,7.9c0.4,2.5,0,5-0.9,7.6c2.3,2.1,4.6,3,6.8,2.7c2.2-0.3,3.9-1.7,4.9-4.1c1-2.4,1.4-5,1-7.6
										c-0.7-4.7-4-9-10-12.9l-8.1,1.3l-2.6-8.3c-3.1-2.1-5.2-3.6-6.3-4.4c-6.5-4.9-10.3-11.4-11.5-19.5
										c-1.4-9.5,0.7-17.3,6.4-23.5c3.7-4.2,8.2-6.6,13.3-7.4c5.8-0.8,11.4,0.9,17,5.2c6,4.5,9.5,9.8,10.4,15.8
										c0.5,2.9-0.2,5.7-2.1,8.2c-1.9,2.5-4.2,4-7,4.4c-2.7,0.4-5.2-0.3-7.4-2.2c-2.2-1.8-3.5-4.3-3.9-7.2c-0.4-2.9,0-6,1.4-9.4
										c-1.5-0.9-3-1.2-4.5-1c-4.7,0.7-6.5,4.5-5.6,11.4c0.3,2.2,1.2,4.2,2.6,5.8c1.3,1.7,3.8,3.6,7.4,6l7.3-0.9l3,7.6
										c2.4,1.4,5.6,3.9,9.8,7.5C524,498.4,526.2,503.6,527.1,509.5z"/>
								</g>
								<g>
									<path class="st2" d="M254.7,436.9c0.7,4.9-0.3,9.2-3,12.9c-2.8,3.8-6.3,6-10.7,6.6c-4.1,0.6-7.9-0.5-11.2-3.3
										c-3.3-2.8-5.3-6.6-6-11.3c-0.7-4.6,0.2-10,2.7-16.3c-2.5-3.5-5.5-5-8.8-4.5c-7.2,1-9.8,8-8,21l4.4,30.7l9.8,9.7l-6.6,12.1
										l5.6,38.8c0.9,6.5,2,11,3.3,13.6c2.3,4.6,5.7,6.6,10.3,5.9c8.8-1.3,11.6-12.5,8.5-33.6l-1.4-9.9l19.7-2.8l1.9,12.9
										c1.8,12.3,1.8,22.1,0.2,29.5c-1.4,6.3-4.5,11.5-9.2,15.6c-4.7,4.2-10,6.7-16.1,7.6c-13.1,1.9-24-3.6-32.5-16.6
										c-10.1-15.2-17.1-34.1-20.8-56.6l-9.4-9.8l7.2-12.2c-0.7-17.7,0.9-32.8,4.8-45.5c5.3-17.7,14.4-27.5,27.6-29.4
										c6.2-0.9,13.2,1.8,20.9,8.1C247.8,418.6,253.5,427.4,254.7,436.9z"/>
									<path class="st2" d="M308.7,561.8l-4.7,0.7c-4.8,0.7-8.2,0-10.2-2.1c-1.4,2.6-4.5,4.3-9.3,5l-4.7,0.7l-1.8-12.4
										c3.7-0.6,5.8-1.2,6.2-1.8c0.4-0.6,0.3-2.4-0.1-5.4l-3.9-27l-5.1-6.2l3.1-7.4l-3.1-21.4c-0.4-3-0.9-4.8-1.5-5.3
										c-0.5-0.5-2.7-0.4-6.3,0.1l-1.8-12.4l4.7-0.7c4.9-0.7,8.4,0,10.4,2.1c1.3-2.6,4.4-4.2,9.2-4.9l4.7-0.7l1.8,12.4
										c-3.6,0.5-5.6,1.1-6,1.8c-0.4,0.7-0.4,2.5,0,5.4l3.1,21.4l5.1,6.2l-3.1,7.4l3.9,27c0.4,2.9,0.9,4.6,1.5,5.1
										c0.5,0.5,2.7,0.5,6.3,0.1L308.7,561.8z"/>
									<path class="st2" d="M370.9,553.2l-21,3l-5.4-37.3c-0.6-4.3-1.2-6.7-1.7-7.4c-0.5-0.5-1.6-0.7-3.5-0.5l-2.2-14.9
										c1.2-0.5,2-1.2,2.4-2.2c0.7-1.5,0.7-4.3,0.1-8.5l-1.1-7.8c-0.9-6-2.7-9-5.3-8.8l-2-13.6c0.3,0,0.5-0.1,0.8-0.1
										c6.5-0.9,11.6,1,15.5,5.8c3.3,4.1,5.5,9.6,6.5,16.6c1.3,8.7,0,16-3.8,21.9c5.1,2,8.1,6.5,9.1,13.6l3,20.7
										c0.5,3.5,1,5.5,1.5,6.2c0.5,0.7,1.5,0.9,2.9,0.7l2.2-0.3L370.9,553.2L370.9,553.2z M344.1,544.1c0.9,0,1.9-0.1,3.1-0.3
										l1.8,12.5l-3.1,0.4L344.1,544.1z M339.3,511.1c-0.4,0-0.7,0.1-1.1,0.1l-2.9,0.4l3.9,27c0.4,2.9,0.9,4.6,1.5,5.1
										c0.4,0.4,1.5,0.5,3.4,0.4l1.8,12.7l-1.7,0.2c-4.9,0.7-8.4-0.1-10.6-2.3c-1.5,2.7-4.7,4.5-9.6,5.2l-4.8,0.7l-1.8-12.5
										c3.8-0.6,5.8-1.3,6.3-1.9c0.4-0.6,0.4-2.4-0.1-5.4l-4-27.4l-5.2-6.2l3.2-7.5l-3.1-21.6c-0.4-3-1-4.7-1.6-5.3
										c-0.6-0.5-2.8-0.5-6.5,0l-1.8-12.5l4.8-0.7c5.2-0.8,8.8,0,10.8,2.2c2.2-3.4,5.8-5.6,10.9-6.4l2,13.6c-0.1,0-0.2,0-0.3,0
										c-1.5,0.2-2.5,0.8-2.8,1.6c-0.4,0.9-0.3,2.8,0.2,5.9l3,20.4l1.7-0.2c0.9-0.1,1.6-0.3,2.3-0.6L339.3,511.1z"/>
									<path class="st2" d="M407.8,467.3c0.5,3.2-0.1,6.1-1.7,8.6c-1.6,2.5-3.8,4-6.5,4.4c-2.6,0.4-4.9-0.4-6.9-2.4
										c-2.1-1.9-3.3-4.5-3.8-7.6c-0.4-2.9,0-6.1,1.1-9.7c-1-1.3-2.2-1.8-3.4-1.7c-3.2,0.5-4.4,4.1-3.4,10.9l2.6,17.9l5.9,6.2
										l-3.8,7.6l3.3,22.7c1.1,7.5,3.2,11.1,6.4,10.6c2-0.3,3.3-1.6,3.8-4.1c0.8-3,0.6-7.8-0.3-14.4l-1-7.2l12.8-1.9l1.3,9
										c1.1,7.4,1.2,13.4,0.3,17.9c-1.6,8.5-6.5,13.4-14.5,14.6c-8.4,1.2-15.6-3.6-21.4-14.6c-4.2-7.9-7.3-17.9-9.4-30l-5.6-6.3
										l4.1-7.8c-0.5-10.6,0.3-19.7,2.4-27.3c2.9-10.8,8.2-16.7,15.7-17.8c3.6-0.5,7.7,1.2,12.2,5.2
										C403.6,455.8,407,461.4,407.8,467.3z"/>
									<path class="st2" d="M529.8,499.6c1.1,7.8-0.1,15.1-3.6,21.7c-3.8,6.9-9.2,10.9-16.3,11.9c-6,0.9-12-1.1-17.8-5.8
										c-7-5.6-10.8-10.9-11.5-15.7c-0.4-3.1,0.3-6,2.1-8.7c1.9-2.7,4.3-4.3,7.2-4.7c2.9-0.4,5.5,0.5,7.7,2.7
										c2.2,2.2,3.6,4.9,4,7.9c0.4,2.5,0.1,5-0.9,7.6c2.3,2.1,4.6,3,6.8,2.7c2.2-0.3,3.9-1.7,4.9-4.1c1-2.4,1.4-5,1-7.6
										c-0.7-4.7-4-9-10-12.9l-8.1,1.3l-2.6-8.3c-3.1-2.1-5.2-3.6-6.3-4.4c-6.5-4.9-10.3-11.4-11.5-19.5
										c-1.4-9.5,0.7-17.3,6.4-23.5c3.7-4.2,8.2-6.6,13.3-7.4c5.8-0.8,11.4,0.9,17,5.2c6,4.5,9.5,9.8,10.4,15.8
										c0.5,2.9-0.2,5.7-2.1,8.2c-1.9,2.5-4.2,4-7,4.4c-2.7,0.4-5.2-0.3-7.4-2.2c-2.2-1.8-3.5-4.3-3.9-7.2c-0.4-2.9,0-6,1.4-9.4
										c-1.5-0.9-3-1.2-4.5-1c-4.7,0.7-6.6,4.5-5.6,11.4c0.3,2.2,1.2,4.1,2.5,5.8c1.3,1.7,3.8,3.6,7.4,6l7.3-0.9l3,7.6
										c2.4,1.4,5.6,3.9,9.8,7.5C526.7,488.5,528.9,493.6,529.8,499.6z"/>
									<path class="st2" d="M467.5,448.4c-2.9,0.5-4.5,1.2-4.9,1.9c-0.4,0.8-0.4,2.5,0,5.1l3.1,21.6l5.4,6l-3.5,7.6l2.5,17.3
										c1.9,13,0.6,22-3.9,27c-3.2,3.5-7.5,5.6-13,6.4c-5.4,0.8-10.1,0-14.1-2.5c-4.4-2.7-7.5-7.1-9.2-13.1
										c-0.8-2.8-1.6-6.6-2.2-11.3l-2.5-17.6l-5.5-6.3l3.5-7.3l-3.1-21.6c-0.4-2.9-0.9-4.5-1.4-5.1c-0.6-0.5-2.6-0.6-6.2-0.2
										l-1.8-12.4l4.2-0.6c5.3-0.8,9-0.1,11.1,2c1.5-2.6,4.9-4.3,10.3-5.1l3.4-0.5l1.8,12.4c-2.7,0.5-4.2,1.1-4.8,1.8
										c-0.5,0.7-0.6,2.5-0.2,5.3l3.1,21.6l5.3,6l-3.4,7.6l3.4,23.4c1,6.6,3.6,9.6,7.8,9c4.3-0.6,6-4.2,5.1-10.8l-3.4-23.4
										l-5.4-6.3l3.4-7.3l-3.1-21.6c-0.4-2.7-1-4.4-1.7-5c-0.7-0.5-2.4-0.7-5.1-0.4l-1.8-12.4l2.5-0.4c4.7-0.7,8.2,0,10.4,2.1
										c1.5-2.6,4.7-4.3,9.4-5l2.6-0.4L467.5,448.4z"/>
								</g>
							</g>
						</g>
						<g>
							<polygon class="st19" points="206,477.5 208.9,483.3 215.3,484.2 210.6,488.7 211.7,495.1 206,492.1 200.3,495.1 
								201.4,488.7 196.8,484.2 203.2,483.3 							"/>
							<polygon class="st19" points="292,505 293.5,508 296.8,508.5 294.4,510.8 295,514.1 292,512.6 289.1,514.1 289.6,510.8 
								287.2,508.5 290.5,508 							"/>
							<polygon class="st19" points="326.4,500.5 327.9,503.5 331.2,504 328.8,506.3 329.4,509.6 326.4,508 323.5,509.6 324,506.3 
								321.6,504 324.9,503.5 							"/>
							<polygon class="st19" points="343.4,498.7 344.9,501.7 348.2,502.2 345.8,504.5 346.4,507.8 343.4,506.3 340.5,507.8 
								341,504.5 338.6,502.2 341.9,501.7 							"/>
							<polygon class="st19" points="376.6,488.7 379.1,493.8 384.7,494.6 380.6,498.5 381.6,504.1 376.6,501.5 371.5,504.1 
								372.5,498.5 368.4,494.6 374.1,493.8 							"/>
							<polygon class="st19" points="502.3,474.4 505.1,480 511.3,480.9 506.8,485.3 507.9,491.4 502.3,488.5 496.8,491.4 
								497.8,485.3 493.4,480.9 499.6,480 							"/>
							<polygon class="st19" points="432.7,484 434.1,486.8 437.2,487.3 434.9,489.5 435.5,492.6 432.7,491.2 429.9,492.6 
								430.4,489.5 428.1,487.3 431.3,486.8 							"/>
							<polygon class="st19" points="460.8,479.7 462.2,482.5 465.4,483 463.1,485.2 463.7,488.3 460.8,486.8 458,488.3 
								458.6,485.2 456.3,483 459.4,482.5 							"/>
						</g>
					</g>
					<g>
						<path class="st2" d="M580.8,469.5c3.5,0.7,5.6,5.2,4.1,9.9c-10.7,32.2-41.1,54-75.1,53.9c-4.9,0-8.6-3.5-8.1-7l0,0
							c0.5-3.6,4.2-6,8.2-6c28.4,0.1,53.7-18.1,62.7-45C573.7,471.5,577.2,468.8,580.8,469.5L580.8,469.5z"/>
						<path class="st2" d="M536.6,452c2.2-1.5,5.7-0.2,7.4,3c11.5,22.6,7.3,50.1-10.6,68.1c-2.6,2.6-6.3,2.8-8,0.7l0,0
							c-1.6-2.1-1-5.4,1-7.5c14.9-15,18.4-38,8.8-56.9C534,456.8,534.4,453.5,536.6,452L536.6,452z"/>
						<path class="st2" d="M557.4,460.4c2-0.9,4.5,0.7,5.3,3.5c5.6,19.4-1.9,40.2-18.6,51.6c-2.4,1.7-5.4,1.2-6.3-0.7l0,0
							c-1-1.9,0-4.4,2-5.7c13.9-9.5,20.2-26.9,15.5-43.1C554.7,463.7,555.5,461.2,557.4,460.4L557.4,460.4z"/>
					</g>
					<g>
						<path class="st2" d="M138.9,436.9c-3-1.9-3.2-7,0-10.7c22-25.9,58.3-34.7,89.8-21.9c4.6,1.9,6.7,6.4,4.9,9.5l0,0
							c-1.8,3.1-6.1,4-9.8,2.5c-26.3-10.7-56.6-3.3-74.9,18.3C146.2,437.7,141.9,438.9,138.9,436.9L138.9,436.9z"/>
						<path class="st2" d="M173.3,469.6c-2.6,0.6-5.4-1.9-5.7-5.6c-2.3-25.2,12-49.2,35.3-59.2c3.4-1.5,6.9-0.2,7.6,2.4l0,0
							c0.7,2.6-1.1,5.4-3.8,6.6c-19.4,8.4-31.3,28.4-29.5,49.4C177.5,466.2,175.9,469,173.3,469.6L173.3,469.6z"/>
						<path class="st2" d="M157.1,454.1c-2.1,0.1-3.9-2.3-3.6-5.2c2.1-20.1,16.8-36.6,36.5-40.9c2.9-0.6,5.4,0.9,5.6,3l0,0
							c0.2,2.1-1.6,4-3.9,4.5c-16.4,3.6-28.8,17.4-30.5,34.2C160.9,452,159.2,454,157.1,454.1L157.1,454.1z"/>
					</g>
				</g>
			</g>
		</g>
	</g>
	<g>
		<path class="st2" d="M281.1,399.4c0.2,0,0.4,0,0.6,0c1,0.2,1.1,1.2,0.5,2.9c-0.1,0.2-0.2,0.4-0.2,0.7c-1.2,3.6-2.2,8.9-2.9,15.8
			c-1.2,10.9-1,19.2,0.6,25c2.1-4,4.1-8.8,5.9-14.3c2.8-8.6,4.3-16.2,4.7-22.9l0.1-0.1c0.2-2.8,0.3-4.9,0.6-6.5
			c0.1-0.3,0.1-0.6,0.2-0.9c0.3-0.9,1.1-1.4,2.2-1.5l7-1c1,0,1.5,0.7,1.3,2.2c-1.5,7.7-2,15.1-1.5,22.2c0.7,10.1,1.7,17,3.1,20.7
			c0-0.1,0.1-0.1,0.1-0.2c3.3-5.7,5.6-13.7,7.1-24.1c1.1-8,1.4-14.8,0.9-20.5c0-0.5-0.1-0.8,0-1c0-0.6,0.5-0.9,1.3-1.1l6.9-1
			c0.6-0.1,1.1-0.1,1.4,0c0.5,0.1,0.8,0.7,0.9,1.6c0.4,3.1,0.5,7.2,0,12.4c-0.7,9.3-2.5,17.9-5.2,26c-3.3,9.9-7.3,16.3-12.1,19.2
			l-5.4,0.8c-0.2,0-0.3,0-0.5,0c-0.7,0-1.2-0.4-1.7-1.3c-2-3.8-3.6-8.9-4.8-15.5c-0.3,0.8-0.6,1.5-0.9,2.3c-2.9,7-6,12.6-9.3,16.9
			l-5.8,0.8c-1.1,0.1-1.9-0.3-2.5-1.2c-0.5-1-1-2-1.4-3.2c-2.6-6.8-4-15.3-4.1-25.3c-0.1-9.8,0.9-18.4,3.2-25.6
			c0.3-0.7,0.9-1.2,1.9-1.4L281.1,399.4z M305.6,444.6c0.2,0.1,0.4,0.1,0.5,0.1L305.6,444.6z"/>
		<path class="st2" d="M332.3,393.8c0.1-1.2,0.8-1.8,2.1-2l6.6-0.9c0.3,0,0.6,0,0.9,0.1c0.7,0.3,1.1,1,1,2.1l-5.8,53.8
			c-0.1,1.2-0.8,1.8-2.1,2l-6.5,0.9c-0.3,0-0.6,0-0.9-0.1c-0.7-0.3-1.1-1-1-2.1L332.3,393.8z"/>
		<path class="st2" d="M353.8,390.7c0.1-1.2,0.8-1.8,2.1-2l6.5-0.9c0.3,0,0.6,0,0.9,0.1c0.7,0.3,1.1,1,1,2.1l-5,46l14.8-2.1
			c1.5-0.2,2.2,0.5,2.1,2.2l-0.3,4.7c0,0.3-0.1,0.7-0.3,1c-0.5,0.9-1.2,1.4-2,1.6l-23.7,3.4c-0.3,0-0.6,0-0.9-0.1
			c-0.7-0.3-1.1-1-1-2.1L353.8,390.7z"/>
		<path class="st2" d="M384.4,394.7c-0.6,0.2-1.1,0.4-1.7,0.6c-1.3,0.5-2,0.7-2.1,0.8c-0.3,0-0.5,0-0.8-0.1c-0.8-0.2-1.2-0.9-1.2-2
			l-0.1-6.5c0-0.8,0.6-1.4,1.5-1.9c0.1,0,0.1,0,0.2-0.1c3.9-1.3,8.2-2.2,12.8-2.9c3.4-0.5,6.4-0.3,9,0.5c5.4,1.8,8.6,6.4,9.7,13.7
			c0.7,4.6,0.6,10.2-0.1,16.7c-0.5,4.1-1.3,7.9-2.4,11.2c-3.1,9.4-8.5,14.7-16,15.8c-0.2,0-0.3,0-0.5,0.1c-5,0.7-8.5,1-10.5,1
			c-0.3,0-0.7-0.1-0.9-0.1c-1.3-0.3-1.8-1.5-1.6-3.4L384.4,394.7z M395.1,392.9l-4.2,37.7c0.5,0,1.4-0.1,2.7-0.3
			c3.6-0.5,6-6.5,7.2-17.9c0.5-5.1,0.5-9.5-0.2-13.3c-0.7-3.9-1.7-5.9-3.2-6.1C396.9,392.8,396.2,392.8,395.1,392.9z"/>
	</g>
</g>
</svg>
